<svg id="ironpath" xmlns="http://www.w3.org/2000/svg" viewBox="0 0 27.22 15.99">
  <g>
    <path d="M13.83,1.44a8.53,8.53,0,0,1-2.11,2.41A23.61,23.61,0,0,1,9,5.9,23.69,23.69,0,0,1,2.72,8.73a1.51,1.51,0,0,0,.8,2.9,26.92,26.92,0,0,0,7.16-3.25A26.36,26.36,0,0,0,13.84,6a10.68,10.68,0,0,0,2.58-3A1.54,1.54,0,0,0,15.88.9a1.51,1.51,0,0,0-2.05.54Z" transform="translate(-1.67 -0.71)"/>
    <path d="M1.71,10.6c.06.36.12.71.17,1.07l-.06-.4a27.12,27.12,0,0,1,.25,3.93,1.53,1.53,0,0,0,1.5,1.5,1.52,1.52,0,0,0,1.5-1.5,31.38,31.38,0,0,0-.46-5.39A1.5,1.5,0,0,0,2.76,8.76a1.55,1.55,0,0,0-.9.69,1.75,1.75,0,0,0-.15,1.15Z" transform="translate(-1.67 -0.71)"/>
  </g>
  <g>
    <path d="M13.83,3A10.7,10.7,0,0,0,16.4,6,27.29,27.29,0,0,0,19.7,8.6,26.91,26.91,0,0,0,27,12a1.5,1.5,0,0,0,.79-2.89,24,24,0,0,1-6.44-3A21.05,21.05,0,0,1,18.67,4a8.76,8.76,0,0,1-2.25-2.6A1.51,1.51,0,0,0,14.37.9,1.53,1.53,0,0,0,13.83,3Z" transform="translate(-1.67 -0.71)"/>
    <path d="M26,10.17a31.78,31.78,0,0,0-.47,5,1.51,1.51,0,0,0,1.5,1.5,1.53,1.53,0,0,0,1.5-1.5,29.45,29.45,0,0,1,.26-3.51l0,.39c0-.34.1-.69.16-1a1.62,1.62,0,0,0-.16-1.16,1.5,1.5,0,0,0-.89-.69,1.56,1.56,0,0,0-1.16.15,1.49,1.49,0,0,0-.69.9Z" transform="translate(-1.67 -0.71)"/>
  </g>
  <g>
    <path d="M13.6,7.24c-.07.12-.07.13,0,0,0,.07-.11.13-.17.2s-.27.25-.41.37L12.82,8h0l-.42.31a17.64,17.64,0,0,1-1.86,1.12c-.32.17-.65.32-1,.47L9.43,10c.15-.07-.11,0-.13,0l-.51.19a18.93,18.93,0,0,1-2.19.65,1.53,1.53,0,0,0-1,1.85A1.55,1.55,0,0,0,7.4,13.75,20.33,20.33,0,0,0,12.17,12a16.26,16.26,0,0,0,1.95-1.21,7.28,7.28,0,0,0,2.07-2,1.51,1.51,0,0,0-.54-2.06,1.54,1.54,0,0,0-2.05.54Z" transform="translate(-1.67 -0.71)"/>
    <path d="M5.58,12.71c.06.31.12.62.16.93l-.06-.4A12.9,12.9,0,0,1,5.8,15a1.47,1.47,0,0,0,.44,1.06,1.5,1.5,0,0,0,1.06.44,1.52,1.52,0,0,0,1.06-.44A1.59,1.59,0,0,0,8.8,15a15.38,15.38,0,0,0-.33-3.09A1.53,1.53,0,0,0,7.78,11a1.51,1.51,0,0,0-1.16-.15,1.47,1.47,0,0,0-.89.69,1.58,1.58,0,0,0-.15,1.15Z" transform="translate(-1.67 -0.71)"/>
  </g>
  <g>
    <path d="M13.6,8.76a7.73,7.73,0,0,0,2.1,2.05,16.94,16.94,0,0,0,2,1.28,20.21,20.21,0,0,0,4.87,1.85,1.5,1.5,0,1,0,.8-2.89,19.35,19.35,0,0,1-2.21-.67l-.51-.19-.14-.06-.14-.06c-.35-.16-.7-.33-1-.51a16.08,16.08,0,0,1-1.82-1.11l-.43-.31c.17.12,0,0-.06-.05l-.21-.18a3.79,3.79,0,0,1-.42-.38s-.21-.22-.11-.11-.12-.17-.12-.18a1.52,1.52,0,0,0-2.05-.54,1.54,1.54,0,0,0-.54,2.06Z" transform="translate(-1.67 -0.71)"/>
    <path d="M21.53,12.11A15.29,15.29,0,0,0,21.2,15,1.52,1.52,0,0,0,21.64,16a1.5,1.5,0,0,0,2.12,0A1.61,1.61,0,0,0,24.2,15c0-.51.05-1,.11-1.52l0,.4c0-.32.1-.63.16-.94a1.56,1.56,0,0,0-.15-1.16,1.52,1.52,0,0,0-.9-.69,1.54,1.54,0,0,0-1.15.15,1.51,1.51,0,0,0-.69.9Z" transform="translate(-1.67 -0.71)"/>
  </g>
</svg>
